<svg xmlns="http://www.w3.org/2000/svg" width="36.86" height="58.975" viewBox="0 0 36.86 58.975">
  <path id="female" data-name="Icon ionic-md-female" d="M44.735,21.206A18.7,18.7,0,0,0,26.3,2.25,18.7,18.7,0,0,0,7.875,21.206,18.805,18.805,0,0,0,23.233,39.9v6.582H14.018V52.8h9.215v8.425h6.143V52.8h9.215V46.481H29.376V39.9A18.805,18.805,0,0,0,44.735,21.206Zm-30.716,0A12.486,12.486,0,0,1,26.3,8.569,12.486,12.486,0,0,1,38.591,21.206,12.486,12.486,0,0,1,26.3,33.844,12.486,12.486,0,0,1,14.018,21.206Z" transform="translate(-7.875 -2.25)" fill="" />
</svg>