<svg xmlns="http://www.w3.org/2000/svg" width="145.945" height="147.294" viewBox="0 0 145.945 147.294">
  <g id="Grupo_22" data-name="Grupo 22" transform="translate(-1124.16 -459)">
    <path id="Caminho_2" data-name="Caminho 2" d="M1068.72,423.355c.8-.056,1.448-.139,2.093-.139,10.437-.007,20.876.024,31.314-.037a2.374,2.374,0,0,1,2.771,2.02,38.324,38.324,0,0,0,73.619-.024c.335-1.12.554-2,2.1-1.994,10.956.063,21.911.035,32.867.043a7.707,7.707,0,0,1,1.055.137c-1.731,27.149-26.389,62.262-68.586,64.7C1103.629,490.509,1072.253,457.966,1068.72,423.355Z" transform="translate(55.44 118.102)" fill="#fff"/>
    <path id="Caminho_3" data-name="Caminho 3" d="M1215.284,44.211h-5.479c-9.327,0-18.656-.041-27.983.039-1.638.013-2.265-.53-2.725-2.08a38.331,38.331,0,0,0-73.63.054c-.326,1.086-.484,2.033-2.078,2.022-10.956-.072-21.912-.039-32.869-.048a7.014,7.014,0,0,1-1.042-.15c2.126-28.789,28.287-63.641,70.923-64.757C1183.228-21.828,1212.4,12.017,1215.284,44.211Z" transform="translate(54.821 479.736)" fill="#e23639"/>
    <path id="Caminho_4" data-name="Caminho 4" d="M1356.108,245.74a24.252,24.252,0,1,1-24.535,24.018A24.218,24.218,0,0,1,1356.108,245.74Z" transform="translate(-158.691 262.654)"/>
  </g>
</svg>
