<svg xmlns="http://www.w3.org/2000/svg" width="263.73" height="94.8" viewBox="0 0 263.73 94.8">
  <g id="letra" transform="translate(-12.44 -45.027)">
    <path id="Caminho_33" data-name="Caminho 33" d="M268,139.819c-.018-.113,0-.261-.065-.327-8.86-9.162-17.728-18.32-26.89-27.783-2.749,3.933-5.374,7.6-7.905,11.337-2.691,3.969-2.651,3.994-5.723.519-7.851,6.961-27.449,1.965-34.1-8.857-5.9,7.317-14.278,8.483-22.772,8.588-4.517.058-9.046-1.227-13.574-1.874-2.328-.334-2.734-1.554-2.364-3.766.857-5.109,1.416-10.273,2.128-15.651-4.038,1.837-7.557,3.435-11.475,5.218,0,3.235.007,6.83,0,10.429-.011,3.838-2.883,5.552-6.536,3.769-7.531-3.678-15.008-7.462-22.514-11.2-1.18-.585-2.382-1.118-4.3-2.015a39.249,39.249,0,0,0,.051,5.973c.661,3.958-1.736,5.639-4.859,6.278-4.895,1.006-9.888,1.529-15.106,2.295-.4-1.921-.788-3.744-1.22-5.806-8.766,6.591-17.532,7.647-26.6-.5a65.907,65.907,0,0,0,1.772,7.066c.948,2.6.236,4.412-2.186,5.331-5.1,1.932-10.248,3.751-15.448,5.389-1.634.512-2.822.011-3.74-2.153-5.167-12.176-10.687-24.2-16.094-36.277a6.32,6.32,0,0,0-.585-.85l-4,1.369L12.44,77.336c4.474-2.84,8.766-6.05,13.476-8.443,7.738-3.933,16.05-6.406,24.827-6.082,8.061.3,15.709,2.291,20.248,9.757,1.551,2.549,2.023,5.792,2.749,8.773a14.634,14.634,0,0,1,.054,3.737c4.5-.97,8.584-1.787,12.622-2.782.574-.142.933-1.144,1.946-2.48-2.153.428-3.217.643-4.535.9V67.942c6.347-2.113,12.975-4.318,19.6-6.522a25.954,25.954,0,0,1,4.122-1.307c.955-.149,2,.28,3.954.61,3.642-1.906,3.61-1.874,7.506,1.848,2.6,2.484,5.349,4.819,7.971,7.281,1.819,1.71,3.355,1.039,5.182-.389-1.031-1.2-1.954-2.28-2.978-3.472,5.422-6.159,10.734-12.368,16.246-18.4,3.312-3.62,4.339-3.406,6.892.632,1.551,2.451,2.865,5.1,4.739,7.281,2.1,2.44.694,3.537-1.191,4.623-2.851,1.638-5.766,3.163-9.347,5.116,3.686,1.057,6.489,1.859,9.343,2.68.073-.091.345-.272.323-.407-.977-6.046-.886-5.973,5.28-6.623,10.015-1.06,20.252-.581,29.715,3.951,8.1,3.878,13.134,9.942,13.458,19.387h8.08a40.781,40.781,0,0,0-.065-6.671c-.654-3.875.425-6.021,4.281-7.393,5.443-1.943,10.887-3.893,16.468-5.886,2.822,4.31,5.679,8.672,8.711,13.3,3.29-2.989,6.337-5.89,9.532-8.621,3.029-2.585,5.309-2.1,7.339,1.282,3.664,6.1,7.342,12.194,11.2,18.6-5.175,2.861-10.106,5.589-15.553,8.606,1.8,1.514,3.4,2.8,4.931,4.161,4.7,4.187,9.354,8.428,14.086,12.582a10.589,10.589,0,0,0,2.517,1.227v4.746c-.29.385-.744.734-.853,1.166-1.558,6.159-3.068,12.328-4.594,18.5C269.812,139.819,268.9,139.819,268,139.819ZM33.589,84.831c2.32,5.077,4.347,9.467,6.329,13.872,3.61,8.018,7.346,15.981,10.72,24.1,1.354,3.261,2.923,3.831,6.111,2.535,4.292-1.743,4.488-1.7,3.344-6.035-1.206-4.575-2.328-9.18-3.744-13.69-.726-2.31-.047-3.453,1.678-5.095,3.381-3.217,6.914-6.62,9.14-10.629C72.81,79.722,66.8,69.532,55.2,67.905c-9.042-1.267-17.27.922-25.394,4.27-7.887,3.25-7.789,3.25-3.5,10.469C28.029,85.543,29.373,88.553,33.589,84.831Zm142.674,30.735c3.668-.12,8.563-.937,12.488-4.452.85-.759,1.7-2.371,1.467-3.337-2.052-8.632,1.1-15.179,7.658-20.608a4.862,4.862,0,0,0,1.866-3.192c-.142-4.554-1.645-8.715-5.44-11.533-7.208-5.356-15.713-6.653-24.384-7.052a3.483,3.483,0,0,0-2.556,2.179c-.759,3.849-1.191,7.771-1.58,11.682-.069.694.512,2.008.988,2.106,2.949.61,2.615,2.665,2.309,4.71-.962,6.456-1.892,12.917-2.974,19.351C164.519,114.847,165.067,115.533,176.262,115.566ZM219.053,76.7c1.732.269,3.493.015,4.049.712,4.332,5.44,8.432,11.061,12.739,16.809-1.195.89-2.313,1.394-2.92,2.262a5.16,5.16,0,0,0-1.166,3.355c1.155,5.9,1.246,5.879-4.176,8.566-.08.04-.109.189-.414.755a40.784,40.784,0,0,0,3.45,4.47,2.556,2.556,0,0,0,2.495-.116c2.484-2.458,4.866-5.037,7.121-7.713,2.8-3.315,2.734-3.381,5.846-.178q9.81,10.1,19.609,20.215c.9.926,1.95,1.707,3.3,2.872.643-2.742,1.01-4.957,1.7-7.066a4.39,4.39,0,0,0-1.507-5.331c-4.038-3.442-7.931-7.048-11.86-10.618-3.058-2.782-6.079-5.607-9.438-8.708,5.57-3.678,10.76-7.106,16.036-10.592-2.8-4.325-5.24-8.076-8.036-12.39-4.739,4.372-9.089,8.381-13.919,12.833-2.172-3.515-4.038-6.678-6.046-9.746-1.736-2.647-3.265-6.841-5.556-7.346-2.789-.617-6.268,1.932-9.463,3.072C218.7,73.6,218.222,75,219.053,76.7ZM112.37,89.613c4.786-5.164,9.118-9.837,13.53-14.605-3.439-3.221-6.362-5.959-9.547-8.944-3.344,4.488-6.453,8.653-10.08,13.519-.508-5-.919-9.06-1.38-13.581-3.954,1.206-7.535,2.19-11.021,3.439-.824.294-1.329,1.482-1.983,2.259.85.312,1.7.646,2.556.933a12.341,12.341,0,0,0,1.387.28c.178,2.259.185,4.412.552,6.507.537,3.05.621,6.5,2.172,8.991a18.407,18.407,0,0,1,1.656,17.4,20.967,20.967,0,0,0-1.071,6.228c-.087,1.58-.167,4.016,2.509,3.13,2.182-.723,6.253,1.118,5.857-3.962-.349-4.514-.073-9.075-.073-14.358l32.972,16.355c.116-1.7.123-2.593.247-3.472.454-3.206-.458-5.08-3.994-6.075a16.317,16.317,0,0,1-7.724-4.554,24.591,24.591,0,0,0-12.092-7.549A46.613,46.613,0,0,1,112.37,89.613Zm33.6,1.26c-.211-.428-.421-.853-.632-1.282,4-4.543,8-9.086,12.452-14.151-2.208-1.507-3.973-3.09-6.032-4.045-6.064-2.818-11.74-.959-17.122,2.07a13.83,13.83,0,0,0-6.809,14.06c1.017,7.368,6.936,12.368,14.551,12.412,7.234.044,13.421-2.193,19.286-8.613a41.513,41.513,0,0,1-4.172-2.814c-1.906-1.645-3.486-2.251-5.774-.32C150.157,89.5,147.905,90.005,145.966,90.873Zm63.152,18.679c.022-.458.044-.915.065-1.376,1.376-.454,2.734-.962,4.132-1.351,3.268-.9,6.573-1.667,9.819-2.629,4.336-1.285,4.808-2.618,2.495-6.5-4-6.729-13.821-10.465-21.356-8.134a14.215,14.215,0,0,0-8.737,18.836c3.239,7.43,15.869,13.156,23.676,10.716a24.02,24.02,0,0,0,2.3-1.013,40.693,40.693,0,0,1-1.111-4.3c-.378-2.535-1.525-3.515-4.267-3.334C213.832,110.613,211.464,109.887,209.118,109.553ZM85.709,86.291A17.374,17.374,0,0,0,68.576,101.9a12.2,12.2,0,0,0,8.555,12.4c8.247,2.477,16.962-2.981,19.9-12.466C99.584,93.608,94.264,86.312,85.709,86.291Zm53.87-23.425,1.209,1.166c4.183-2.248,8.37-4.492,12.779-6.86-1.478-2.179-2.535-3.729-4.165-6.133C145.872,55.283,142.727,59.074,139.579,62.865Z" transform="translate(0 0)" fill="#e23639"/>
    <path id="Caminho_34" data-name="Caminho 34" d="M119.27,159.3c-1.692-5.69-3.17-10.458-4.459-15.273-.142-.527.643-1.62,1.267-1.968,2.811-1.565,7.72-.537,9.616,1.852,1.859,2.349,1.787,6.968-.36,9.4C123.675,155.191,121.768,156.854,119.27,159.3Z" transform="translate(-65.186 -61.322)" fill="#e23639"/>
    <path id="Caminho_35" data-name="Caminho 35" d="M454.57,186.256c.763-5.389,1.434-10.792,2.4-16.148.127-.708,1.725-1.62,2.658-1.641a8.751,8.751,0,0,1,8.552,6.377c.755,2.814-1.06,7.226-4.161,8.9a74.425,74.425,0,0,1-8.337,3.334Z" transform="translate(-281.58 -78.614)" fill="#e23639"/>
    <path id="Caminho_36" data-name="Caminho 36" d="M354.193,145.021c-4.35-3.9-4.706-8.512-1.391-11.936,3.17-3.275,7.887-3.261,11.689.4C361.118,137.265,357.73,141.06,354.193,145.021Zm5.175-9.928c-5.146-.723-6.068.414-5.087,6.057C356.02,139.081,357.519,137.294,359.368,135.093Z" transform="translate(-215.355 -54.551)" fill="#e23639"/>
    <path id="Caminho_37" data-name="Caminho 37" d="M545.074,181.389c.465.131,1.928.138,2.756.868a34.018,34.018,0,0,1,3.733,4.525,25.919,25.919,0,0,1-4.049,2.339c-2.636.966-5.393,1.594-8.069,2.451-2.469.792-3.326-.229-3.315-2.589C536.144,184.588,539.6,181.338,545.074,181.389Zm1.017,5.668c-3.076-3.646-4.841-3.275-6.809,1.416C541.737,187.962,543.73,187.548,546.091,187.057Z" transform="translate(-333.523 -86.844)" fill="#e23639"/>
    <line id="Linha_5" data-name="Linha 5" y1="15.264" x2="32.811" transform="translate(63.94 93.132)" fill="#e23639" stroke="#e23639" stroke-miterlimit="10" stroke-width="4"/>
    <circle id="Elipse_24" data-name="Elipse 24" cx="5.222" cy="5.222" r="5.222" transform="translate(77.887 93.688)" fill="#fff" stroke="#e23639" stroke-miterlimit="10" stroke-width="3"/>
  </g>
</svg>
