<svg xmlns="http://www.w3.org/2000/svg" width="140" height="140" viewBox="5 12 140 140">
  <path fill="white" id="Caminho_1" data-name="Caminho 1" d="M145.31,80.7A70,70,0,1,1,75.455,10.67,70.047,70.047,0,0,1,145.31,80.7ZM15.882,85.215c2.3,20.647,12,36.505,29.86,47.047a58.966,58.966,0,0,0,64.605-3.556c14.578-10.806,22.516-25.412,24.345-43.548H106.672c-1.342,0-1.342,0-1.587,1.28a30.326,30.326,0,0,1-59.594-.323c-.143-.774-.418-.973-1.169-.97q-13.648.037-27.3.017C16.713,85.163,16.4,85.191,15.882,85.215ZM96.29,80.646a20.979,20.979,0,1,0-21,20.99,20.98,20.98,0,0,0,21-20.99Z" transform="translate(-5.31 -10.67)"/>
</svg>
