<svg width="741" height="505" viewBox="0 0 741 505" fill="none" xmlns="http://www.w3.org/2000/svg">
<path d="M305.5 42.5C299.88 42.5 289.433 73.2111 284.024 91.4813C283.575 92.999 284.994 94.3972 286.509 93.9392L345.3 76.1653C346.462 75.8138 347.006 74.5519 346.266 73.5884C339.632 64.9444 312.402 42.5 305.5 42.5Z" fill="#FFF2CA" stroke="#CCCCCC"/>
<path d="M482.512 47.4488C477.497 43.0515 444.341 61.9855 425.734 73.6318C424.393 74.4715 424.536 76.4544 425.973 77.1161L492.424 107.699C493.536 108.211 494.795 107.615 494.881 106.393C495.741 94.1452 488.672 52.85 482.512 47.4488Z" fill="#FFF2CA" stroke="#CCCCCC"/>
<path d="M496.5 149C496.5 173.109 483.564 194.973 462.577 210.826C441.589 226.68 412.572 236.5 380.5 236.5C348.428 236.5 319.411 226.68 298.423 210.826C277.436 194.973 264.5 173.109 264.5 149C264.5 124.891 277.436 103.027 298.423 87.1736C319.411 71.3202 348.428 61.5 380.5 61.5C412.572 61.5 441.589 71.3202 462.577 87.1736C483.564 103.027 496.5 124.891 496.5 149Z" fill="#FFF2CA" stroke="#CCCCCC"/>
<path d="M233.364 157.358L223.012 171.31C222.685 171.75 222.554 172.306 222.648 172.846L229.271 210.693C229.41 211.485 230.01 212.117 230.793 212.297L390.15 248.919C390.381 248.973 390.621 248.984 390.857 248.953L534.259 230.227C535.255 230.097 536 229.249 536 228.244V209.729C536 209.577 535.983 209.425 535.948 209.276L531.176 188.758C531.063 188.27 531.142 187.748 531.387 187.312C568.483 121.214 565.972 79.9879 558 76.5C551.71 73.7482 476.652 101.356 437.998 116.23C436.907 116.65 435.723 116.059 435.388 114.939C425.729 82.6536 404.203 21.5663 390.5 20.0003C376.752 18.4291 332.628 69.4455 311.157 96.5349C310.498 97.3666 309.307 97.5133 308.434 96.9102C255.615 60.4328 210.976 57.1025 208.5 67.4999C206.525 75.7956 224.219 128.989 233.649 155.513C233.872 156.141 233.761 156.822 233.364 157.358Z" fill="#FFF2CA" stroke="#CCCCCC"/>
<path d="M338.5 158.308C293.3 139.508 279.333 175.141 278 195.308C278 254.35 356.58 256.629 396.184 250.358C396.399 250.324 396.602 250.325 396.816 250.36C416.761 253.598 456.919 249.483 460.5 207.308C465 154.308 420.5 151.308 393.5 162.308C371.9 171.108 347.833 163.308 338.5 158.308Z" fill="#A27770"/>
<path d="M385.501 173.307C399.638 172.914 396.94 186.626 393.683 193.908C393.564 194.174 393.501 194.458 393.501 194.749V198.433C393.501 199.487 392.683 200.36 391.631 200.429L341.631 203.7C340.682 203.762 339.821 203.148 339.571 202.23L335.501 187.307C334.668 184.14 334.401 176.906 340.001 173.307C347.001 168.807 355.501 171.806 358.001 181.306C360.501 190.806 374.001 188.306 374.001 181.306C374.001 175.706 381.668 173.64 385.501 173.307Z" fill="#72625A"/>
<path d="M351 197.308C316.482 181.794 301.425 197.619 297.807 208.318C297.598 208.934 297.744 209.608 298.154 210.113L316.43 232.606C316.792 233.052 317.329 233.32 317.904 233.343L417.422 237.227C418.556 237.271 419.5 236.363 419.5 235.228V223.308C419.686 211.974 415.177 205.473 409 201.932C398.555 195.945 383.341 198.423 378 200.308C371.2 202.707 357.167 199.308 351 197.308Z" fill="#F3A0AB"/>
<path d="M334.5 194.999C329.158 191.994 312.53 194.005 309.212 194.752C308.598 194.891 309.21 194.687 309.688 194.278C313.96 190.618 329.245 188.015 348.5 195.998C358.01 199.942 371 200.999 383.5 198.999C393.5 197.399 400.5 198 403 199.499C404.5 200.399 398.2 198.198 383 202.998C364 208.998 342.5 199.499 334.5 194.999Z" fill="#C37B81"/>
<path d="M172.501 275V274.982L172.5 274.964C171.256 257.547 174.865 234.516 182.037 213.386C189.065 192.681 199.479 173.905 212.001 164.017V177.5V178.326L212.733 177.943L222.815 172.662L242.072 204.757L242.307 205.149L242.719 204.95L273.426 190.092L308.678 219.882L308.965 220.125L309.278 219.916L331.437 205.143L341.147 214.854L341.429 215.135L341.766 214.924L357.445 205.125L368.165 214.87L368.435 215.115L368.751 214.933L381.458 207.602L404.692 225.893L404.942 226.09L405.226 225.946L452.454 202.084L485.207 225.904L485.5 226.118L485.794 225.905L514.498 205.12L527.703 214.902L527.978 215.105L528.267 214.923L548.478 202.218C559.418 224.446 565.501 249.078 565.501 275C565.501 373.539 477.571 453.5 369.001 453.5C260.431 453.5 172.501 373.539 172.501 275Z" fill="white" stroke="#CCCCCC"/>
<path fill-rule="evenodd" clip-rule="evenodd" d="M367.831 298.145C379.607 307.903 390.843 320.374 396.577 328.18C402.29 335.957 404.697 342.219 403.829 347.817C403.391 350.646 402.187 352.763 401.056 354.304C400.515 355.042 399.964 355.684 399.567 356.143L399.558 356.154C399.113 356.669 398.895 356.921 398.723 357.151C397.773 358.419 396.472 359.387 395.527 360.032C394.451 360.766 393.177 361.512 391.815 362.251C389.084 363.731 385.619 365.383 381.847 367.092C376.76 369.396 370.857 371.918 365.11 374.374C362.357 375.55 359.641 376.711 357.067 377.825C348.831 381.39 341.731 380.275 336.422 376.634C331.522 373.272 328.757 368.192 327.6 364.53C325.92 359.24 322.145 342.225 320.642 325.674C319.89 317.398 319.666 308.847 320.7 301.768C321.217 298.231 322.089 294.758 323.565 291.785C325.052 288.791 327.36 285.909 330.896 284.348C337.06 281.626 343.966 283.441 349.689 286.089C355.678 288.86 361.951 293.273 367.831 298.145ZM344.65 296.979C339.733 294.704 336.992 294.774 335.744 295.325C335.575 295.4 335.008 295.723 334.313 297.122C333.608 298.542 332.991 300.65 332.574 303.503C331.742 309.202 331.873 316.662 332.592 324.589C334.032 340.435 337.666 356.582 339.038 360.9L339.042 360.912C339.63 362.777 341.094 365.286 343.21 366.738C344.921 367.912 347.63 368.834 352.3 366.812C354.994 365.646 357.777 364.457 360.563 363.267C366.238 360.842 371.925 358.413 376.895 356.161C380.589 354.488 383.745 352.975 386.096 351.701C387.275 351.062 388.157 350.533 388.765 350.119C389.052 349.923 389.214 349.795 389.288 349.735C389.676 349.234 390.085 348.762 390.382 348.418C390.418 348.377 390.452 348.338 390.485 348.3C390.88 347.842 391.149 347.522 391.378 347.21C391.788 346.651 391.919 346.313 391.971 345.978C392.084 345.248 392.093 342.345 386.906 335.284C381.74 328.252 371.177 316.502 360.174 307.385C354.663 302.819 349.301 299.132 344.65 296.979Z" fill="#54A8C2" stroke="#CCCCCC"/>
<path fill-rule="evenodd" clip-rule="evenodd" d="M246.154 332.836C251.474 347.175 254.969 363.593 256.032 373.22C257.09 382.812 256.044 389.438 252.494 393.852C250.699 396.082 248.598 397.314 246.849 398.084C246.011 398.453 245.212 398.732 244.64 398.931L244.626 398.936C243.983 399.16 243.668 399.27 243.405 399.382C241.948 400.006 240.337 400.194 239.197 400.28C237.897 400.377 236.42 400.387 234.872 400.345C231.766 400.262 227.94 399.96 223.818 399.553C218.262 399.006 211.888 398.238 205.683 397.492C202.711 397.134 199.778 396.781 196.992 396.459C188.077 395.428 182.486 390.913 179.709 385.105C177.146 379.744 177.292 373.962 178.121 370.211C179.311 364.79 184.548 348.167 191.522 333.082C195.009 325.539 199.091 318.022 203.526 312.408C205.742 309.604 208.233 307.032 210.999 305.195C213.784 303.345 217.223 302.004 221.066 302.42C227.765 303.144 232.838 308.169 236.471 313.324C240.272 318.719 243.498 325.677 246.154 332.836ZM226.661 320.236C223.54 315.807 221.133 314.497 219.776 314.35C219.592 314.33 218.939 314.327 217.638 315.191C216.318 316.068 214.729 317.585 212.942 319.847C209.371 324.367 205.754 330.893 202.415 338.117C195.738 352.561 190.812 368.361 189.841 372.787L189.839 372.8C189.416 374.709 189.429 377.614 190.535 379.929C191.43 381.801 193.315 383.954 198.37 384.538C201.286 384.875 204.291 385.237 207.299 385.599C213.426 386.337 219.565 387.076 224.996 387.611C229.031 388.009 232.521 388.278 235.194 388.349C236.535 388.385 237.563 388.368 238.297 388.313C238.643 388.287 238.848 388.258 238.942 388.242C239.528 388.003 240.118 387.799 240.547 387.65C240.599 387.632 240.648 387.615 240.695 387.598C241.267 387.399 241.66 387.257 242.014 387.101C242.648 386.822 242.931 386.595 243.143 386.331C243.606 385.755 245.065 383.245 244.104 374.537C243.147 365.864 239.874 350.407 234.903 337.01C232.414 330.3 229.613 324.425 226.661 320.236Z" fill="#DB6E52" stroke="#CCCCCC"/>
<path fill-rule="evenodd" clip-rule="evenodd" d="M528.319 367.977C527.149 383.923 523.625 401.049 520.892 409.838C518.17 418.59 514.686 424.184 509.693 426.851C507.166 428.202 504.756 428.518 502.869 428.549C501.97 428.563 501.145 428.513 500.576 428.477C499.915 428.435 499.633 428.417 499.396 428.419C497.758 428.429 496.183 427.966 495.145 427.618C493.944 427.216 492.634 426.673 491.298 426.066C488.616 424.85 485.401 423.183 481.989 421.328C477.386 418.827 472.154 415.833 467.071 412.926C464.641 411.536 462.246 410.165 459.97 408.878C452.382 404.585 449.056 398.343 448.835 391.967C448.634 386.148 451.033 381.024 453.228 377.989C456.188 373.886 467.256 359.83 479.342 347.653C485.361 341.588 491.903 335.712 498 331.796C501.037 329.846 504.277 328.176 507.517 327.327C510.761 326.476 514.692 326.286 518.337 328.313C521.523 330.084 523.626 332.897 525.021 335.763C526.415 338.629 527.286 341.917 527.835 345.274C528.931 351.981 528.903 360.015 528.319 367.977ZM512.097 339.724C512.3 339.868 512.769 340.297 513.331 341.45C513.984 342.793 514.576 344.748 515.005 347.372C515.864 352.625 515.906 359.502 515.354 367.026C514.251 382.052 510.898 398.197 508.478 405.978C506.047 413.796 503.923 415.196 503.568 415.385C503.422 415.463 503.223 415.541 502.656 415.55C502.327 415.556 501.964 415.538 501.395 415.502C501.349 415.5 501.3 415.496 501.249 415.493C500.848 415.467 500.283 415.431 499.697 415.421C499.609 415.397 499.47 415.357 499.275 415.292C498.661 415.086 497.798 414.74 496.668 414.228C494.417 413.206 491.527 411.716 488.197 409.906C483.717 407.471 478.708 404.606 473.699 401.74C471.236 400.331 468.772 398.921 466.371 397.563C462.501 395.374 461.883 393.124 461.827 391.518C461.753 389.36 462.742 387.016 463.762 385.608L463.77 385.597C466.389 381.965 477.028 368.439 488.569 356.81C494.367 350.969 500.122 345.883 505.025 342.735C507.488 341.153 509.424 340.266 510.813 339.902C511.563 339.705 511.951 339.709 512.097 339.724ZM512.142 339.73C512.16 339.733 512.168 339.736 512.168 339.737C512.167 339.737 512.158 339.736 512.142 339.73Z" fill="#54A8C2" stroke="#CCCCCC"/>
<path d="M237.153 350.774C471.586 462.667 528.871 306.419 528.013 215.59C528.007 214.899 528.353 214.273 528.935 213.899L547.08 202.234C548.097 201.581 549.466 201.99 549.967 203.09C583.937 277.771 553.811 345.731 533.5 370.5C430.264 496.398 301.73 454.901 229.532 409.65C228.89 409.247 228.548 408.524 228.624 407.769L234.213 352.343C234.353 350.962 235.9 350.176 237.153 350.774Z" fill="#F9F8F9" fill-opacity="0.79"/>
<path d="M495 261C467.559 240.129 428.572 274.217 410.785 295.787C409.904 296.857 410.384 298.457 411.711 298.855C425.69 303.053 455.341 308.984 481.5 304.5C509.5 299.7 501 266 495 261Z" fill="#FFF5D2" stroke="#CCCCCC"/>
<path d="M227.073 252.815C228.442 286.348 277.814 295.713 304.944 296.378C306.346 296.412 307.306 295.018 306.767 293.723C301.234 280.453 287.363 254.253 267.899 236.957C247.012 218.396 227.099 245.206 227.073 252.815Z" fill="#FFF5D2" stroke="#CCCCCC"/>
<path d="M255.311 357.114C269.459 374.122 278.272 392.811 281.105 409.258C283.94 425.721 280.772 439.829 271.124 447.855C261.475 455.88 247.025 456.424 231.355 450.638C215.699 444.857 198.928 432.786 184.781 415.777C170.634 398.768 161.82 380.08 158.988 363.632C156.153 347.17 159.321 333.061 168.969 325.036C178.618 317.01 193.068 316.466 208.738 322.253C224.394 328.034 241.164 340.105 255.311 357.114Z" fill="#FFF2CA" stroke="#CCCCCC"/>
<path d="M166 329C167.333 337.5 173.3 357.3 186.5 368.5" stroke="#CCCCCC"/>
<path d="M518.229 442.62C506.038 459.661 490.577 471.895 475.459 477.915C460.334 483.937 445.622 483.719 434.822 475.991C424.021 468.264 419.064 454.411 419.88 438.152C420.696 421.9 427.283 403.317 439.474 386.276C451.666 369.235 467.126 357.001 482.245 350.981C497.369 344.959 512.081 345.177 522.882 352.904C533.682 360.631 538.639 374.485 537.824 390.744C537.008 406.996 530.421 425.579 518.229 442.62Z" fill="#FFF2CA" stroke="#CCCCCC"/>
<ellipse cx="482.506" cy="423.451" rx="40.4585" ry="69.6614" transform="rotate(39.9299 482.506 423.451)" fill="#E3D8B8" fill-opacity="0.55"/>
<path d="M229.5 361.5C256.294 392.72 282.5 414.499 268.5 448C251.544 462.553 214.311 449.447 187.516 418.227C160.722 387.008 148.545 347.053 165.501 332.501C188.5 329.5 202.706 330.28 229.5 361.5Z" fill="#E3D8B8" fill-opacity="0.55"/>
<path d="M248 403L208 422.5C214.833 431.667 232.4 447.7 248 438.5C263.6 429.3 254.5 411 248 403Z" fill="#DDB5A8"/>
<path d="M451.954 426.967L494.34 440.521C488.893 450.574 473.811 468.963 457.052 462.099C440.292 455.235 446.67 435.818 451.954 426.967Z" fill="#DDB5A8"/>
<path d="M526 356C525.167 363.167 521.4 378.6 513 383" stroke="#CCCCCC"/>
<path d="M338.57 120.301L321 126C326.5 125 337.9 122.9 339.5 122.5C341.1 122.1 350.5 127.667 355 130.5L340.309 120.548C339.799 120.202 339.157 120.111 338.57 120.301Z" fill="black"/>
<path d="M409.633 124.783L387.5 132L410.879 127.616C411.283 127.541 411.701 127.591 412.075 127.761L422.274 132.397C422.41 132.459 422.57 132.43 422.676 132.324C422.84 132.16 422.806 131.884 422.607 131.764L411.282 124.969C410.785 124.671 410.184 124.603 409.633 124.783Z" fill="black"/>
<path d="M377 106L381.142 112.627C381.642 113.428 382.634 113.769 383.521 113.447L386.742 112.276C387.228 112.099 387.764 112.117 388.237 112.328L405.5 120M344.5 117C350.167 116 361.9 112.4 363.5 106M321 126L338.57 120.301C339.157 120.111 339.799 120.202 340.309 120.548L355 130.5C350.5 127.667 341.1 122.1 339.5 122.5C337.9 122.9 326.5 125 321 126ZM387.5 132L409.633 124.783C410.184 124.603 410.785 124.671 411.282 124.969L422.607 131.764C422.806 131.884 422.84 132.16 422.676 132.324V132.324C422.57 132.43 422.41 132.459 422.274 132.397L412.075 127.761C411.701 127.591 411.283 127.541 410.879 127.616L387.5 132Z" stroke="black"/>
<path d="M496.242 293.381C477.56 278.969 429.266 304.113 434.674 304.028C434.862 304.025 435.101 304.016 435.287 304.044C480.227 310.791 495.142 301.087 496.838 294.961C497.003 294.366 496.731 293.758 496.242 293.381Z" fill="#F0E4C0"/>
<path d="M229.496 254.241C242.124 256.786 262.493 278.502 272.446 290.695C272.779 291.104 270.373 291.142 269.863 291.006C269.218 290.833 259.79 288.025 259.168 287.782C235.775 278.612 228.52 264.077 227.602 256.01C227.476 254.904 228.406 254.021 229.496 254.241Z" fill="#F0E4C0"/>
<path d="M281.409 227.621L280.164 215.583C280.088 214.85 279.272 214.448 278.645 214.834L268.078 221.336C267.528 221.675 267.438 222.438 267.895 222.895L274.608 229.608C274.852 229.852 275.204 229.953 275.54 229.875L280.639 228.699C281.131 228.585 281.461 228.123 281.409 227.621Z" fill="#DB6E52"/>
<path d="M447.165 253.568C463.479 248.84 468.238 227.192 466.739 217.845C466.413 213.419 452.137 217.986 445.04 220.823C428.252 228.483 431.118 234.016 428.252 248.91C425.967 260.786 439.762 257.021 447.015 253.625C447.063 253.602 447.113 253.583 447.165 253.568Z" stroke="#DB6E52" stroke-width="8"/>
<path d="M319.5 126.395C189.5 54.3947 57 60.728 7 72.8947L0 33.3945L115.5 20.3945C213.9 26.7945 292.5 93.728 319.5 126.395Z" fill="#D4F0F5"/>
<path d="M94 0.893842C184.8 -9.90616 281 79.8324 319 125.999C269 70.3992 158.333 36.7271 108 26.8936V39.8936C96 31.0936 36.6667 36.2269 8.5 39.8936V17.8936C19.7 12.2936 70.1667 15.5602 94 17.8936V0.893842Z" fill="#F3FBFF"/>
<path d="M715 133.608C648.2 90.8077 493.833 115.774 425 133.608C457 95.2079 561.333 67.2743 609.5 58.1074L656.5 70.6074L741 77.6074L734 97.1074L729 137.607L715 133.608Z" fill="#D4F0F5"/>
<path d="M613.551 38.5373C558.225 30.2387 431.834 120.631 425.668 132.68C425.396 133.21 425.912 133.407 426.392 133.056C481.682 92.6352 577.631 72.7467 620.931 68.2168C621.52 68.1552 622.001 68.6209 622.001 69.2129V84.202C622.001 84.7158 622.39 85.1459 622.901 85.1971L725.901 95.4971C726.49 95.5559 727 95.0936 727 94.502V58.7129C727 58.3405 726.801 58.0017 726.469 57.8334C699.733 44.2863 646.656 48.225 622.655 52.0028C622.249 52.0667 621.863 51.8748 621.653 51.5214L614.239 39.0102C614.088 38.7548 613.845 38.5814 613.551 38.5373Z" fill="#F3FBFF"/>
</svg>
