<svg id="teste" xmlns="http://www.w3.org/2000/svg" width="312" height="312" viewBox="0 0 312 312">
  <path id="Caminho_1" data-name="Caminho 1" d="M265.209,140.655A130.028,130.028,0,0,1,135.078,270.534C63.436,270.469,5.212,212.1,5.31,140.451A130,130,0,0,1,135.529,10.67C207.116,10.751,265.261,69.033,265.209,140.655ZM24.936,149.039c4.272,38.324,22.271,67.76,55.433,87.328,37.184,21.946,85.068,19.25,119.935-6.6,27.062-20.058,41.8-47.169,45.194-80.832H193.48c-2.491,0-2.491,0-2.946,2.375a56.3,56.3,0,0,1-110.632-.6c-.266-1.436-.776-1.806-2.17-1.8q-25.337.068-50.674.032C26.479,148.942,25.9,148.994,24.936,149.039Zm149.271-8.481a38.946,38.946,0,1,0-38.993,38.961A39,39,0,0,0,174.207,140.558Z" transform="translate(-5.31 -10.67)" fill="white" />
</svg>